<svg width="165" height="59" viewBox="0 0 165 59" fill="none" xmlns="http://www.w3.org/2000/svg">
<path d="M2.16016 12.1889L1.16024 12.1761L1.16024 12.1761L1.16024 12.1759L1.16025 12.1754L1.16027 12.1734L1.16037 12.1656L1.16076 12.1359L1.16221 12.028L1.16711 11.6824C1.17091 11.4272 1.17577 11.1297 1.17985 10.9833C1.19099 10.104 1.26897 9.2268 1.41315 8.35927C1.55661 7.49256 1.83194 6.65286 2.22957 5.86918C2.62432 5.08793 3.143 4.37554 3.76549 3.7595C4.38526 3.14042 5.0984 2.62211 5.87892 2.22336L5.88389 2.22082L5.8839 2.22084C6.66514 1.8272 7.5012 1.55292 8.36406 1.40714L8.36969 1.40619L8.36969 1.4062C9.24272 1.26382 10.1252 1.18683 11.0098 1.17587C11.0099 1.17587 11.0101 1.17586 11.0103 1.17586L12.2081 1.1597L12.2216 1.15952V1.15961H148.772H148.786V1.1597L149.997 1.1765C149.997 1.17651 149.997 1.17651 149.998 1.17652C150.875 1.18696 151.75 1.26333 152.616 1.40499L152.621 1.40589C153.491 1.55319 154.334 1.82877 155.122 2.22363L155.132 2.22829L155.132 2.22834C156.696 3.03225 157.969 4.30437 158.773 5.86686L158.777 5.87485C159.168 6.65289 159.439 7.48549 159.581 8.34445C159.581 8.3451 159.581 8.34575 159.581 8.3464L158.594 8.50897L2.16016 12.1889ZM2.16016 12.1889L1.16016 12.1761V12.1889V42.7971H1.16009L1.16023 42.8089L2.16016 42.7971L1.16023 42.809L1.16023 42.809L1.16023 42.8091L1.16024 42.8097L1.16026 42.8117L1.16035 42.8196L1.16072 42.8499L1.16209 42.9596C1.16326 43.0515 1.16491 43.1771 1.16682 43.3115C1.17052 43.5711 1.17537 43.8756 1.1798 44.0282C1.19142 44.9085 1.26983 45.7866 1.41434 46.6551L2.16016 12.1889ZM8.36658 53.596L8.36659 53.596C7.503 53.4477 6.66634 53.1718 5.88422 52.7773L5.8839 52.7772C5.1031 52.383 4.39066 51.8665 3.77378 51.2472C3.14781 50.633 2.62643 49.9209 2.23029 49.139C1.83283 48.3576 1.55766 47.5201 1.41441 46.6555L8.36658 53.596ZM8.36658 53.596L8.37594 53.5975L8.36658 53.596ZM147.34 53.8433H147.338L12.2209 53.8407C11.8091 53.8407 11.408 53.8355 11.0017 53.8264C11.0001 53.8263 10.9986 53.8263 10.997 53.8263L147.34 53.8433ZM147.34 53.8433L148.778 53.8407L147.34 53.8433Z" stroke="#747272" stroke-width="2"/>
<path d="M33.9108 27.8985C33.9251 26.7926 34.2197 25.7083 34.7671 24.7464C35.3146 23.7845 36.0972 22.9763 37.042 22.3971C36.4418 21.5422 35.6499 20.8388 34.7294 20.3425C33.8088 19.8462 32.7849 19.5708 31.7389 19.5382C29.5077 19.3046 27.3446 20.8696 26.2076 20.8696C25.0486 20.8696 23.298 19.5614 21.4129 19.6C20.1936 19.6393 19.0053 19.9929 17.9637 20.6263C16.9221 21.2597 16.0629 22.1514 15.4697 23.2144C12.8999 27.6511 14.8167 34.1715 17.2783 37.7577C18.5099 39.5138 19.9493 41.4754 21.8327 41.4058C23.6757 41.3296 24.364 40.2339 26.5887 40.2339C28.7927 40.2339 29.4385 41.4058 31.3601 41.3616C33.3377 41.3296 34.5837 39.5977 35.7721 37.825C36.657 36.5737 37.3379 35.1908 37.7896 33.7274C36.6407 33.2428 35.6602 32.4317 34.9704 31.3952C34.2807 30.3586 33.9121 29.1425 33.9108 27.8985Z" fill="#747272"/>
<path d="M30.2816 17.1796C31.3599 15.8888 31.8911 14.2297 31.7625 12.5546C30.1151 12.7271 28.5934 13.5122 27.5005 14.7535C26.9662 15.3599 26.5569 16.0654 26.2962 16.8296C26.0354 17.5939 25.9283 18.4018 25.9808 19.2074C26.8048 19.2158 27.62 19.0377 28.365 18.6865C29.1099 18.3353 29.7652 17.82 30.2816 17.1796Z" fill="#747272"/>
<path d="M57.2075 36.9601H50.9182L49.4078 41.4074H46.7439L52.7011 24.9536H55.4688L61.4259 41.4074H58.7166L57.2075 36.9601ZM51.5696 34.9079H56.5549L54.0973 27.6903H54.0285L51.5696 34.9079Z" fill="#747272"/>
<path d="M74.2913 35.4101C74.2913 39.1379 72.2905 41.533 69.271 41.533C68.5061 41.5729 67.7454 41.3972 67.076 41.026C66.4066 40.6548 65.8556 40.1032 65.486 39.4342H65.4288V45.376H62.9596V29.4114H65.3497V31.4066H65.3952C65.7817 30.7409 66.3421 30.1921 67.0166 29.8186C67.6911 29.4452 68.4545 29.261 69.2256 29.2858C72.2787 29.2859 74.2913 31.6926 74.2913 35.4101ZM71.7533 35.4101C71.7533 32.9814 70.4946 31.3846 68.5742 31.3846C66.6875 31.3846 65.4185 33.015 65.4185 35.4101C65.4185 37.8272 66.6875 39.4459 68.5742 39.4459C70.4946 39.4459 71.7533 37.8608 71.7533 35.4101Z" fill="#747272"/>
<path d="M87.5317 35.4101C87.5317 39.1379 85.5308 41.533 82.5114 41.533C81.7465 41.5729 80.9858 41.3972 80.3164 41.026C79.647 40.6548 79.096 40.1032 78.7264 39.4342H78.6692V45.376H76.2V29.4113H78.5901V31.4066H78.6355C79.0221 30.7408 79.5824 30.192 80.2569 29.8186C80.9314 29.4452 81.6948 29.261 82.4659 29.2858C85.5192 29.2858 87.5317 31.6926 87.5317 35.4101ZM84.9936 35.4101C84.9936 32.9813 83.735 31.3846 81.8146 31.3846C79.9279 31.3846 78.6589 33.015 78.6589 35.4101C78.6589 37.8271 79.9279 39.4459 81.8146 39.4459C83.735 39.4459 84.9937 37.8608 84.9937 35.4101H84.9936Z" fill="#747272"/>
<path d="M96.2825 36.823C96.4655 38.4546 98.055 39.5259 100.227 39.5259C102.308 39.5259 103.806 38.4546 103.806 36.9834C103.806 35.7062 102.903 34.9415 100.764 34.4175L98.626 33.9038C95.5961 33.174 94.1895 31.761 94.1895 29.4681C94.1895 26.6292 96.6705 24.6793 100.193 24.6793C103.68 24.6793 106.07 26.6292 106.151 29.4681H103.658C103.509 27.8261 102.148 26.835 100.158 26.835C98.1692 26.835 96.808 27.8378 96.808 29.2973C96.808 30.4606 97.6774 31.1451 99.8041 31.6691L101.622 32.1142C105.007 32.9126 106.414 34.2686 106.414 36.6753C106.414 39.7536 103.955 41.6816 100.044 41.6816C96.385 41.6816 93.9144 39.7989 93.7548 36.8228L96.2825 36.823Z" fill="#747272"/>
<path d="M111.743 26.5723V29.4112H114.031V31.3611H111.743V37.9745C111.743 39.0019 112.201 39.4806 113.207 39.4806C113.479 39.4759 113.75 39.4569 114.019 39.4236V41.362C113.567 41.4462 113.108 41.4844 112.648 41.4758C110.212 41.4758 109.262 40.5636 109.262 38.2371V31.3611H107.513V29.4112H109.262V26.5723H111.743Z" fill="#747272"/>
<path d="M115.356 35.4099C115.356 31.6355 117.585 29.2637 121.061 29.2637C124.549 29.2637 126.768 31.6354 126.768 35.4099C126.768 39.1947 124.561 41.5561 121.061 41.5561C117.563 41.5561 115.356 39.1947 115.356 35.4099ZM124.252 35.4099C124.252 32.8207 123.062 31.2926 121.061 31.2926C119.06 31.2926 117.872 32.8324 117.872 35.4099C117.872 38.0094 119.06 39.5259 121.061 39.5259C123.062 39.5259 124.252 38.0094 124.252 35.4099H124.252Z" fill="#747272"/>
<path d="M128.804 29.4112H131.159V31.4531H131.216C131.375 30.8154 131.75 30.2518 132.277 29.8571C132.804 29.4624 133.451 29.2606 134.11 29.2857C134.394 29.2847 134.678 29.3155 134.956 29.3776V31.6808C134.596 31.5713 134.222 31.5211 133.846 31.532C133.487 31.5175 133.13 31.5806 132.798 31.7169C132.466 31.8532 132.167 32.0596 131.923 32.3218C131.679 32.584 131.494 32.8958 131.382 33.2359C131.27 33.576 131.232 33.9363 131.273 34.292V41.4074H128.804L128.804 29.4112Z" fill="#747272"/>
<path d="M146.34 37.8839C146.008 40.0616 143.882 41.5561 141.161 41.5561C137.661 41.5561 135.489 39.218 135.489 35.4668C135.489 31.704 137.673 29.2637 141.057 29.2637C144.385 29.2637 146.478 31.5436 146.478 35.1809V36.0245H137.981V36.1733C137.942 36.6148 137.998 37.0596 138.144 37.478C138.29 37.8965 138.524 38.2792 138.831 38.6005C139.137 38.9219 139.508 39.1747 139.919 39.342C140.331 39.5094 140.773 39.5875 141.218 39.5712C141.801 39.6257 142.387 39.491 142.887 39.1869C143.388 38.8829 143.777 38.4259 143.996 37.8839L146.34 37.8839ZM137.993 34.3036H144.007C144.03 33.9066 143.969 33.5094 143.83 33.1368C143.691 32.7642 143.476 32.4242 143.199 32.1384C142.922 31.8525 142.589 31.6268 142.22 31.4754C141.851 31.3241 141.455 31.2504 141.057 31.2589C140.655 31.2565 140.256 31.3336 139.884 31.4856C139.512 31.6376 139.174 31.8617 138.889 32.1447C138.604 32.4278 138.378 32.7643 138.224 33.1348C138.071 33.5054 137.992 33.9026 137.993 34.3036V34.3036Z" fill="#747272"/>
<path d="M51.2603 12.5684C51.778 12.5314 52.2975 12.6094 52.7813 12.7968C53.2651 12.9842 53.7012 13.2763 54.0581 13.6521C54.4149 14.0279 54.6837 14.478 54.845 14.9699C55.0063 15.4619 55.0562 15.9834 54.9909 16.4968C54.9909 19.0226 53.6219 20.4745 51.2603 20.4745H48.3966V12.5684H51.2603ZM49.628 19.3564H51.1228C51.4927 19.3784 51.8629 19.3179 52.2064 19.1793C52.55 19.0407 52.8582 18.8275 53.1086 18.5551C53.3591 18.2827 53.5455 17.9581 53.6543 17.6048C53.763 17.2515 53.7914 16.8785 53.7374 16.5129C53.7875 16.1488 53.7562 15.7781 53.6458 15.4274C53.5353 15.0767 53.3485 14.7547 53.0986 14.4845C52.8487 14.2143 52.542 14.0026 52.2004 13.8645C51.8588 13.7264 51.4908 13.6653 51.1228 13.6857H49.628V19.3564Z" fill="#747272"/>
<path d="M56.3817 17.4884C56.344 17.0963 56.389 16.7007 56.5137 16.327C56.6384 15.9532 56.84 15.6096 57.1057 15.3181C57.3714 15.0266 57.6952 14.7938 58.0564 14.6344C58.4176 14.475 58.8083 14.3927 59.2032 14.3927C59.5982 14.3927 59.9889 14.475 60.3501 14.6344C60.7113 14.7938 61.0351 15.0266 61.3008 15.3181C61.5664 15.6096 61.7681 15.9532 61.8928 16.327C62.0175 16.7007 62.0624 17.0963 62.0248 17.4884C62.0631 17.8809 62.0187 18.277 61.8943 18.6514C61.77 19.0257 61.5685 19.37 61.3027 19.662C61.037 19.9541 60.7129 20.1875 60.3514 20.3472C59.9898 20.5069 59.5987 20.5894 59.2032 20.5894C58.8078 20.5894 58.4167 20.5069 58.0551 20.3472C57.6935 20.1875 57.3695 19.9541 57.1037 19.662C56.838 19.37 56.6365 19.0257 56.5121 18.6514C56.3878 18.277 56.3433 17.8809 56.3817 17.4884ZM60.8103 17.4884C60.8103 16.1951 60.2277 15.4388 59.2052 15.4388C58.1788 15.4388 57.6014 16.1951 57.6014 17.4884C57.6014 18.7921 58.1788 19.5425 59.2052 19.5425C60.2277 19.5425 60.8103 18.7869 60.8103 17.4884H60.8103Z" fill="#747272"/>
<path d="M69.5264 20.4742H68.3015L67.0649 16.08H66.9715L65.7401 20.4742H64.5268L62.8776 14.5079H64.0753L65.1471 19.0606H65.2353L66.4654 14.5079H67.5982L68.8283 19.0606H68.9217L69.9883 14.5079H71.1691L69.5264 20.4742Z" fill="#747272"/>
<path d="M72.556 14.5078H73.6927V15.4556H73.7809C73.9306 15.1151 74.1831 14.8298 74.5031 14.6392C74.8232 14.4487 75.1949 14.3625 75.5664 14.3926C75.8575 14.3708 76.1499 14.4145 76.4217 14.5207C76.6936 14.6268 76.938 14.7926 77.1369 15.0057C77.3358 15.2188 77.484 15.4738 77.5706 15.7518C77.6573 16.0298 77.6801 16.3237 77.6373 16.6117V20.474H76.4566V16.9074C76.4566 15.9486 76.0387 15.4717 75.1655 15.4717C74.9678 15.4626 74.7705 15.4961 74.5871 15.5701C74.4036 15.6441 74.2384 15.7567 74.1027 15.9003C73.967 16.0439 73.864 16.2151 73.8009 16.4021C73.7377 16.5891 73.7159 16.7875 73.7368 16.9837V20.4741H72.556L72.556 14.5078Z" fill="#747272"/>
<path d="M79.519 12.1788H80.6998V20.4742H79.519V12.1788Z" fill="#747272"/>
<path d="M82.3409 17.4885C82.3033 17.0964 82.3483 16.7008 82.4731 16.327C82.5978 15.9533 82.7995 15.6096 83.0651 15.3181C83.3308 15.0266 83.6547 14.7938 84.0159 14.6344C84.3772 14.475 84.7678 14.3927 85.1628 14.3927C85.5579 14.3927 85.9485 14.475 86.3098 14.6344C86.671 14.7938 86.9948 15.0266 87.2605 15.3181C87.5262 15.6096 87.7279 15.9533 87.8526 16.327C87.9773 16.7008 88.0223 17.0964 87.9848 17.4885C88.023 17.881 87.9786 18.2772 87.8542 18.6515C87.7298 19.0258 87.5282 19.3701 87.2624 19.6621C86.9967 19.9542 86.6726 20.1875 86.311 20.3472C85.9494 20.5069 85.5583 20.5894 85.1628 20.5894C84.7674 20.5894 84.3763 20.5069 84.0147 20.3472C83.6531 20.1875 83.329 19.9542 83.0632 19.6621C82.7975 19.3701 82.5959 19.0258 82.4715 18.6515C82.3471 18.2772 82.3026 17.881 82.3409 17.4885ZM86.7696 17.4885C86.7696 16.1952 86.1869 15.4389 85.1645 15.4389C84.1381 15.4389 83.5607 16.1952 83.5607 17.4885C83.5607 18.7922 84.1381 19.5426 85.1645 19.5426C86.187 19.5426 86.7696 18.787 86.7696 17.4885H86.7696Z" fill="#747272"/>
<path d="M89.2279 18.7869C89.2279 17.7129 90.0298 17.0938 91.4533 17.0058L93.0739 16.9126V16.3977C93.0739 15.7675 92.6561 15.4117 91.849 15.4117C91.1899 15.4117 90.7331 15.653 90.6021 16.0748H89.4589C89.5796 15.05 90.5463 14.3927 91.9035 14.3927C93.4035 14.3927 94.2495 15.1373 94.2495 16.3977V20.4742H93.1129V19.6357H93.0194C92.8298 19.9365 92.5635 20.1817 92.2478 20.3463C91.9321 20.5109 91.5782 20.5889 91.2223 20.5725C90.9711 20.5986 90.7173 20.5719 90.4771 20.4941C90.2369 20.4163 90.0157 20.2892 89.8278 20.121C89.6399 19.9527 89.4895 19.7471 89.3861 19.5173C89.2828 19.2876 89.2289 19.0387 89.2279 18.7869ZM93.0739 18.2771V17.7783L91.6129 17.8715C90.7889 17.9264 90.4152 18.2059 90.4152 18.7319C90.4152 19.2689 90.8823 19.5814 91.5247 19.5814C91.7129 19.6004 91.903 19.5814 92.0837 19.5257C92.2644 19.4699 92.432 19.3784 92.5766 19.2568C92.7211 19.1351 92.8397 18.9856 92.9251 18.8173C93.0105 18.649 93.0612 18.4653 93.0739 18.2771Z" fill="#747272"/>
<path d="M95.8014 17.4885C95.8014 15.6032 96.7733 14.4089 98.285 14.4089C98.6589 14.3917 99.03 14.481 99.3549 14.6664C99.6798 14.8517 99.9451 15.1255 100.12 15.4556H100.208V12.1788H101.389V20.4742H100.257V19.5316H100.164C99.9757 19.8595 99.7012 20.1299 99.37 20.3133C99.0388 20.4968 98.6636 20.5865 98.285 20.5726C96.7629 20.5726 95.8014 19.3783 95.8014 17.4885ZM97.0212 17.4885C97.0212 18.754 97.6194 19.5154 98.6198 19.5154C99.615 19.5154 100.23 18.743 100.23 17.4937C100.23 16.2502 99.6086 15.4667 98.6198 15.4667C97.6258 15.4667 97.0211 16.2334 97.0211 17.4885H97.0212Z" fill="#747272"/>
<path d="M106.274 17.4884C106.236 17.0963 106.281 16.7007 106.406 16.327C106.531 15.9532 106.732 15.6096 106.998 15.3181C107.264 15.0266 107.587 14.7938 107.949 14.6344C108.31 14.475 108.701 14.3927 109.096 14.3927C109.491 14.3927 109.881 14.475 110.242 14.6344C110.604 14.7938 110.927 15.0266 111.193 15.3181C111.459 15.6096 111.66 15.9532 111.785 16.327C111.91 16.7007 111.955 17.0963 111.917 17.4884C111.955 17.8809 111.911 18.277 111.787 18.6514C111.662 19.0257 111.461 19.37 111.195 19.662C110.929 19.9541 110.605 20.1875 110.244 20.3472C109.882 20.5069 109.491 20.5894 109.096 20.5894C108.7 20.5894 108.309 20.5069 107.947 20.3472C107.586 20.1875 107.262 19.9541 106.996 19.662C106.73 19.37 106.529 19.0257 106.404 18.6514C106.28 18.277 106.236 17.8809 106.274 17.4884ZM110.703 17.4884C110.703 16.1951 110.12 15.4388 109.097 15.4388C108.071 15.4388 107.494 16.1951 107.494 17.4884C107.494 18.7921 108.071 19.5425 109.097 19.5425C110.12 19.5425 110.703 18.7869 110.703 17.4884Z" fill="#747272"/>
<path d="M113.502 14.5078H114.638V15.4556H114.727C114.876 15.1151 115.129 14.8298 115.449 14.6392C115.769 14.4487 116.141 14.3625 116.512 14.3926C116.803 14.3708 117.096 14.4145 117.367 14.5207C117.639 14.6268 117.884 14.7926 118.083 15.0057C118.281 15.2188 118.43 15.4738 118.516 15.7518C118.603 16.0298 118.626 16.3237 118.583 16.6117V20.474H117.402V16.9074C117.402 15.9486 116.984 15.4717 116.111 15.4717C115.914 15.4626 115.716 15.4961 115.533 15.5701C115.349 15.6441 115.184 15.7567 115.048 15.9003C114.913 16.0439 114.81 16.2151 114.747 16.4021C114.683 16.5891 114.662 16.7875 114.683 16.9837V20.4741H113.502V14.5078Z" fill="#747272"/>
<path d="M125.255 13.0224V14.535H126.551V15.5268H125.255V18.5948C125.255 19.2197 125.513 19.4934 126.101 19.4934C126.251 19.4929 126.402 19.4838 126.551 19.4662V20.447C126.339 20.4849 126.124 20.505 125.909 20.5072C124.596 20.5072 124.073 20.0465 124.073 18.8962V15.5268H123.123V14.535H124.073V13.0224H125.255Z" fill="#747272"/>
<path d="M128.164 12.1788H129.335V15.4667H129.428C129.585 15.1231 129.845 14.8361 130.171 14.6448C130.498 14.4536 130.875 14.3673 131.253 14.3979C131.542 14.3822 131.832 14.4304 132.1 14.5391C132.369 14.6478 132.611 14.8143 132.807 15.0268C133.004 15.2392 133.152 15.4924 133.239 15.7681C133.326 16.0439 133.352 16.3355 133.313 16.6222V20.4742H132.131V16.9127C132.131 15.9597 131.686 15.477 130.852 15.477C130.649 15.4604 130.445 15.4882 130.254 15.5585C130.063 15.6288 129.889 15.7399 129.746 15.884C129.602 16.0281 129.492 16.2017 129.423 16.3926C129.354 16.5836 129.327 16.7874 129.345 16.9896V20.4742H128.164L128.164 12.1788Z" fill="#747272"/>
<path d="M140.198 18.8634C140.038 19.4086 139.69 19.8803 139.216 20.1959C138.742 20.5114 138.172 20.6507 137.606 20.5895C137.212 20.5998 136.82 20.5246 136.458 20.3688C136.096 20.2131 135.772 19.9807 135.509 19.6877C135.246 19.3947 135.05 19.0481 134.935 18.672C134.82 18.296 134.788 17.8994 134.842 17.5099C134.789 17.1192 134.822 16.7218 134.937 16.3446C135.052 15.9674 135.246 15.6192 135.508 15.3237C135.77 15.0281 136.092 14.792 136.453 14.6314C136.814 14.4708 137.205 14.3894 137.6 14.3928C139.265 14.3928 140.27 15.527 140.27 17.4005V17.8114H136.045V17.8774C136.026 18.0963 136.054 18.3167 136.126 18.5244C136.198 18.7321 136.312 18.9225 136.462 19.0835C136.612 19.2444 136.794 19.3723 136.997 19.4589C137.199 19.5456 137.418 19.5891 137.638 19.5866C137.921 19.6205 138.207 19.5697 138.46 19.4409C138.714 19.3121 138.923 19.1111 139.062 18.8633L140.198 18.8634ZM136.045 16.9406H139.067C139.082 16.7403 139.054 16.5392 138.987 16.3501C138.919 16.161 138.812 15.9881 138.674 15.8425C138.535 15.697 138.367 15.582 138.181 15.5049C137.995 15.4278 137.795 15.3904 137.594 15.395C137.39 15.3924 137.187 15.4306 136.998 15.5074C136.809 15.5842 136.637 15.698 136.493 15.842C136.348 15.986 136.234 16.1575 136.157 16.3461C136.08 16.5348 136.042 16.7369 136.045 16.9406H136.045Z" fill="#747272"/>
</svg>

