<svg width="22" height="22" viewBox="0 0 22 22" fill="none" xmlns="http://www.w3.org/2000/svg">
<path d="M11 1.83337C5.93087 1.83337 1.83337 5.93087 1.83337 11C1.83337 16.0692 5.93087 20.1667 11 20.1667C16.0692 20.1667 20.1667 16.0692 20.1667 11C20.1667 5.93087 16.0692 1.83337 11 1.83337ZM14.9325 13.6492C15.0174 13.7341 15.0847 13.8348 15.1307 13.9457C15.1766 14.0566 15.2002 14.1754 15.2002 14.2955C15.2002 14.4155 15.1766 14.5343 15.1307 14.6452C15.0847 14.7561 15.0174 14.8568 14.9325 14.9417C14.8477 15.0266 14.7469 15.0939 14.636 15.1398C14.5252 15.1858 14.4063 15.2094 14.2863 15.2094C14.1663 15.2094 14.0474 15.1858 13.9365 15.1398C13.8257 15.0939 13.7249 15.0266 13.64 14.9417L11 12.2925L8.35087 14.9417C8.17948 15.1131 7.94701 15.2094 7.70462 15.2094C7.46223 15.2094 7.22977 15.1131 7.05837 14.9417C6.88698 14.7703 6.79069 14.5378 6.79069 14.2955C6.79069 14.1754 6.81433 14.0566 6.86026 13.9457C6.90619 13.8348 6.97351 13.7341 7.05837 13.6492L9.70754 11L7.06754 8.35087C6.98267 8.26601 6.91535 8.16526 6.86942 8.05437C6.82349 7.94349 6.79986 7.82464 6.79986 7.70462C6.79986 7.46223 6.89614 7.22977 7.06754 7.05837C7.23894 6.88698 7.4714 6.79069 7.71379 6.79069C7.95618 6.79069 8.18864 6.88698 8.36004 7.05837L11 9.70754L13.6492 7.05837C13.7341 6.97351 13.8348 6.90619 13.9457 6.86026C14.0566 6.81433 14.1754 6.79069 14.2955 6.79069C14.4155 6.79069 14.5343 6.81433 14.6452 6.86026C14.7561 6.90619 14.8568 6.97351 14.9417 7.05837C15.0266 7.14324 15.0939 7.24399 15.1398 7.35488C15.1858 7.46576 15.2094 7.5846 15.2094 7.70462C15.2094 7.82464 15.1858 7.94349 15.1398 8.05437C15.0939 8.16526 15.0266 8.26601 14.9417 8.35087L12.2925 11L14.9325 13.6492Z" fill="#5A7889"/>
</svg>
