<svg width="18" height="18" viewBox="0 0 18 18" fill="none" xmlns="http://www.w3.org/2000/svg">
<circle cx="9" cy="9" r="9" fill="black"/>
<path d="M6.216 7.748H7.608V7.148C7.608 6.452 7.812 5.916 8.22 5.54C8.628 5.164 9.216 4.976 9.984 4.976C10.152 4.976 10.324 4.988 10.5 5.012C10.676 5.028 10.828 5.052 10.956 5.084V6.464C10.804 6.432 10.668 6.408 10.548 6.392C10.436 6.376 10.316 6.368 10.188 6.368C9.876 6.368 9.64 6.436 9.48 6.572C9.328 6.708 9.252 6.912 9.252 7.184V7.748H10.956V9.128H9.252V14H7.608V9.128H6.216V7.748Z" fill="#FFF9F9"/>
</svg>
