<svg width="43" height="43" viewBox="0 0 43 43" fill="none" xmlns="http://www.w3.org/2000/svg">
<path d="M21.5 14.1094C20.0383 14.1094 18.6094 14.5428 17.394 15.3549C16.1786 16.167 15.2313 17.3213 14.672 18.6717C14.1126 20.0222 13.9662 21.5082 14.2514 22.9418C14.5366 24.3755 15.2404 25.6924 16.274 26.726C17.3076 27.7596 18.6245 28.4634 20.0582 28.7486C21.4918 29.0338 22.9778 28.8874 24.3283 28.328C25.6787 27.7687 26.833 26.8214 27.6451 25.606C28.4572 24.3906 28.8906 22.9617 28.8906 21.5C28.8884 19.5406 28.109 17.662 26.7235 16.2765C25.338 14.891 23.4594 14.1116 21.5 14.1094ZM21.5 27.5469C20.304 27.5469 19.1349 27.1922 18.1405 26.5278C17.1461 25.8634 16.3711 24.919 15.9134 23.814C15.4557 22.7091 15.336 21.4933 15.5693 20.3203C15.8026 19.1473 16.3785 18.0699 17.2242 17.2242C18.0699 16.3785 19.1473 15.8026 20.3203 15.5693C21.4933 15.336 22.7091 15.4557 23.814 15.9134C24.919 16.3711 25.8634 17.1461 26.5278 18.1405C27.1922 19.1349 27.5469 20.304 27.5469 21.5C27.5451 23.1032 26.9074 24.6402 25.7738 25.7738C24.6402 26.9074 23.1032 27.5451 21.5 27.5469ZM28.8906 5.375H14.1094C11.7937 5.37762 9.57358 6.29869 7.93614 7.93614C6.29869 9.57358 5.37762 11.7937 5.375 14.1094V28.8906C5.37762 31.2063 6.29869 33.4264 7.93614 35.0639C9.57358 36.7013 11.7937 37.6224 14.1094 37.625H28.8906C31.2063 37.6224 33.4264 36.7013 35.0639 35.0639C36.7013 33.4264 37.6224 31.2063 37.625 28.8906V14.1094C37.6224 11.7937 36.7013 9.57358 35.0639 7.93614C33.4264 6.29869 31.2063 5.37762 28.8906 5.375ZM36.2812 28.8906C36.279 30.8501 35.4997 32.7286 34.1141 34.1141C32.7286 35.4997 30.8501 36.279 28.8906 36.2812H14.1094C12.1499 36.279 10.2714 35.4997 8.88587 34.1141C7.50034 32.7286 6.72097 30.8501 6.71875 28.8906V14.1094C6.72097 12.1499 7.50034 10.2714 8.88587 8.88587C10.2714 7.50034 12.1499 6.72097 14.1094 6.71875H28.8906C30.8501 6.72097 32.7286 7.50034 34.1141 8.88587C35.4997 10.2714 36.279 12.1499 36.2812 14.1094V28.8906ZM31.5781 12.7656C31.5781 13.0314 31.4993 13.2912 31.3517 13.5122C31.204 13.7332 30.9941 13.9054 30.7486 14.0071C30.5031 14.1088 30.2329 14.1354 29.9722 14.0836C29.7116 14.0317 29.4721 13.9037 29.2842 13.7158C29.0963 13.5279 28.9683 13.2884 28.9164 13.0278C28.8646 12.7671 28.8912 12.4969 28.9929 12.2514C29.0946 12.0059 29.2668 11.796 29.4878 11.6483C29.7088 11.5007 29.9686 11.4219 30.2344 11.4219C30.5906 11.4223 30.9322 11.564 31.1841 11.8159C31.436 12.0678 31.5777 12.4094 31.5781 12.7656Z" fill="black"/>
</svg>
