<svg width="43" height="43" viewBox="0 0 43 43" fill="none" xmlns="http://www.w3.org/2000/svg">
<path d="M34.9375 6.04688H8.0625C7.52811 6.0475 7.01579 6.26006 6.63793 6.63793C6.26006 7.01579 6.0475 7.52811 6.04688 8.0625V34.9375C6.0475 35.4719 6.26006 35.9842 6.63793 36.3621C7.01579 36.7399 7.52811 36.9525 8.0625 36.9531H34.9375C35.4719 36.9525 35.9842 36.7399 36.3621 36.3621C36.7399 35.9842 36.9525 35.4719 36.9531 34.9375V8.0625C36.9525 7.52811 36.7399 7.01579 36.3621 6.63793C35.9842 6.26006 35.4719 6.0475 34.9375 6.04688ZM35.6094 34.9375C35.6092 35.1156 35.5383 35.2864 35.4123 35.4123C35.2864 35.5383 35.1156 35.6092 34.9375 35.6094H8.0625C7.88438 35.6092 7.71361 35.5383 7.58766 35.4123C7.46171 35.2864 7.39085 35.1156 7.39062 34.9375V8.0625C7.39085 7.88438 7.46171 7.71361 7.58766 7.58766C7.71361 7.46171 7.88438 7.39085 8.0625 7.39062H34.9375C35.1156 7.39085 35.2864 7.46171 35.4123 7.58766C35.5383 7.71361 35.6092 7.88438 35.6094 8.0625V34.9375ZM15.4531 18.8127V29.5627C15.4531 29.7409 15.3823 29.9118 15.2563 30.0378C15.1303 30.1638 14.9594 30.2345 14.7812 30.2345C14.6031 30.2345 14.4322 30.1638 14.3062 30.0378C14.1802 29.9118 14.1094 29.7409 14.1094 29.5627V18.8127C14.1094 18.6345 14.1802 18.4636 14.3062 18.3376C14.4322 18.2116 14.6031 18.1408 14.7812 18.1408C14.9594 18.1408 15.1303 18.2116 15.2563 18.3376C15.3823 18.4636 15.4531 18.6345 15.4531 18.8127ZM30.2344 23.5158V29.5627C30.2344 29.7409 30.1636 29.9118 30.0376 30.0378C29.9116 30.1638 29.7407 30.2345 29.5625 30.2345C29.3843 30.2345 29.2134 30.1638 29.0874 30.0378C28.9614 29.9118 28.8906 29.7409 28.8906 29.5627V23.5158C28.8906 22.4466 28.4659 21.4213 27.7099 20.6653C26.9539 19.9093 25.9285 19.4845 24.8594 19.4845C23.7902 19.4845 22.7649 19.9093 22.0089 20.6653C21.2528 21.4213 20.8281 22.4466 20.8281 23.5158V29.5627C20.8281 29.7409 20.7573 29.9118 20.6313 30.0378C20.5053 30.1638 20.3344 30.2345 20.1562 30.2345C19.9781 30.2345 19.8072 30.1638 19.6812 30.0378C19.5552 29.9118 19.4844 29.7409 19.4844 29.5627V18.8127C19.4844 18.6345 19.5552 18.4636 19.6812 18.3376C19.8072 18.2116 19.9781 18.1408 20.1562 18.1408C20.3344 18.1408 20.5053 18.2116 20.6313 18.3376C20.7573 18.4636 20.8281 18.6345 20.8281 18.8127V19.9663C21.5491 19.146 22.503 18.565 23.5627 18.3007C24.6223 18.0363 25.7374 18.1013 26.7591 18.4869C27.7809 18.8724 28.6609 19.5603 29.2818 20.4587C29.9027 21.3572 30.235 22.4235 30.2344 23.5156V23.5158ZM16.125 13.4375C16.125 13.7033 16.0462 13.9631 15.8985 14.184C15.7509 14.405 15.541 14.5773 15.2955 14.679C15.0499 14.7807 14.7798 14.8073 14.5191 14.7554C14.2584 14.7036 14.019 14.5756 13.8311 14.3877C13.6431 14.1997 13.5152 13.9603 13.4633 13.6997C13.4115 13.439 13.4381 13.1688 13.5398 12.9233C13.6415 12.6777 13.8137 12.4679 14.0347 12.3202C14.2557 12.1726 14.5155 12.0938 14.7812 12.0938C15.1375 12.0942 15.479 12.2359 15.7309 12.4878C15.9828 12.7397 16.1246 13.0813 16.125 13.4375Z" fill="black"/>
</svg>
