<svg width="42" height="57" viewBox="0 0 42 57" fill="none" xmlns="http://www.w3.org/2000/svg">
<path d="M18.25 17.75C19.1771 17.75 20.0834 18.0249 20.8542 18.54C21.6251 19.0551 22.2259 19.7871 22.5807 20.6437C22.9355 21.5002 23.0283 22.4427 22.8474 23.352C22.6666 24.2613 22.2201 25.0965 21.5646 25.7521C20.909 26.4076 20.0738 26.8541 19.1645 27.0349C18.2552 27.2158 17.3127 27.123 16.4562 26.7682C15.5996 26.4134 14.8676 25.8126 14.3525 25.0417C13.8374 24.2709 13.5625 23.3646 13.5625 22.4375C13.5625 21.1943 14.0564 20.002 14.9354 19.1229C15.8145 18.2439 17.0068 17.75 18.25 17.75ZM18.25 15.875C16.9521 15.875 15.6833 16.2599 14.6041 16.981C13.5249 17.7021 12.6837 18.727 12.187 19.9261C11.6903 21.1253 11.5604 22.4448 11.8136 23.7178C12.0668 24.9908 12.6918 26.1601 13.6096 27.0779C14.5274 27.9957 15.6967 28.6207 16.9697 28.8739C18.2427 29.1271 19.5622 28.9972 20.7614 28.5005C21.9605 28.0038 22.9854 27.1626 23.7065 26.0834C24.4276 25.0042 24.8125 23.7354 24.8125 22.4375C24.8125 20.697 24.1211 19.0278 22.8904 17.7971C21.6597 16.5664 19.9905 15.875 18.25 15.875Z" fill="#06AB0D"/>
<path d="M27.625 42.125H25.75V37.4375C25.75 36.1943 25.2561 35.002 24.3771 34.1229C23.498 33.2439 22.3057 32.75 21.0625 32.75H15.4375C14.1943 32.75 13.002 33.2439 12.1229 34.1229C11.2439 35.002 10.75 36.1943 10.75 37.4375V42.125H8.875V37.4375C8.875 35.697 9.5664 34.0278 10.7971 32.7971C12.0278 31.5664 13.697 30.875 15.4375 30.875H21.0625C22.803 30.875 24.4722 31.5664 25.7029 32.7971C26.9336 34.0278 27.625 35.697 27.625 37.4375V42.125Z" fill="#06AB0D"/>
<path d="M30.4375 29.1687L28.0094 26.7406L26.6875 28.0625L30.4375 31.8125L37 25.25L35.6781 23.9281L30.4375 29.1687Z" fill="#06AB0D"/>
</svg>
