<svg width="43" height="43" viewBox="0 0 43 43" fill="none" xmlns="http://www.w3.org/2000/svg">
<path d="M27.2477 20.9411L19.1852 15.5661C19.084 15.4986 18.9664 15.4599 18.845 15.454C18.7235 15.4482 18.6027 15.4754 18.4955 15.5327C18.3883 15.5901 18.2986 15.6755 18.2361 15.7798C18.1736 15.8842 18.1406 16.0035 18.1406 16.1251V26.8751C18.1406 26.9967 18.1736 27.1161 18.2361 27.2204C18.2986 27.3247 18.3883 27.4101 18.4955 27.4675C18.6027 27.5249 18.7235 27.5521 18.845 27.5462C18.9664 27.5403 19.084 27.5016 19.1852 27.4341L27.2477 22.0591C27.3397 21.9978 27.4152 21.9146 27.4674 21.8171C27.5196 21.7196 27.5469 21.6107 27.5469 21.5001C27.5469 21.3895 27.5196 21.2806 27.4674 21.1831C27.4152 21.0856 27.3397 21.0025 27.2477 20.9411ZM19.4844 25.6197V17.3805L25.6639 21.5001L19.4844 25.6197ZM38.7101 11.8933C38.5777 11.3786 38.3249 10.9027 37.9723 10.5049C37.6198 10.1071 37.1778 9.79886 36.6827 9.60557C31.0067 7.42416 21.8816 7.45742 21.5042 7.45926C21.1189 7.45708 11.9935 7.42399 6.31714 9.6054C5.8221 9.79873 5.38012 10.107 5.02767 10.5048C4.67523 10.9025 4.42241 11.3784 4.29009 11.8931C3.86546 13.5231 3.35938 16.5131 3.35938 21.5001C3.35938 26.4873 3.86546 29.4771 4.28992 31.1071C4.42228 31.6218 4.67514 32.0977 5.02765 32.4955C5.38016 32.8933 5.8222 33.2015 6.3173 33.3948C11.9933 35.5761 21.1184 35.5431 21.4958 35.5409C21.5146 35.5409 21.5546 35.5413 21.6146 35.5413C22.7707 35.5413 31.2857 35.4689 36.6829 33.3948C37.1779 33.2015 37.6199 32.8932 37.9723 32.4954C38.3248 32.0977 38.5776 31.6218 38.7099 31.1071C39.1345 29.4771 39.6406 26.4871 39.6406 21.5001C39.6406 16.5129 39.1345 13.5231 38.7101 11.8931V11.8933ZM37.4097 30.7685C37.3314 31.0766 37.1809 31.3617 36.9707 31.6003C36.7605 31.8388 36.4966 32.024 36.2008 32.1404C30.763 34.2301 21.5966 34.1987 21.4958 34.1972C21.4034 34.1972 12.237 34.2301 6.79921 32.1404C6.50337 32.0239 6.23947 31.8387 6.02928 31.6002C5.81909 31.3616 5.66864 31.0765 5.59034 30.7683C5.18553 29.2144 4.70312 26.345 4.70312 21.5001C4.70312 16.6554 5.1857 13.7858 5.59034 12.2318C5.66864 11.9236 5.81909 11.6385 6.02928 11.4C6.23947 11.1614 6.50337 10.9763 6.79921 10.8598C12.2372 8.77009 21.4038 8.80335 21.5042 8.80301C21.5959 8.80184 30.763 8.76992 36.2008 10.8598C36.4966 10.9763 36.7605 11.1615 36.9707 11.4001C37.1809 11.6386 37.3314 11.9238 37.4097 12.2319C37.8145 13.7858 38.2969 16.6552 38.2969 21.5001C38.2969 26.3448 37.8143 29.2144 37.4097 30.7685Z" fill="black"/>
</svg>
